# xmcd CD database file
#
# Track frame offsets:
#	150
#	18009
#	40509
#	58652
#	68935
#	88248
#	115237
#	133583
#	144745
#	171265
#	190800
#	207734
#	224922
#	242850
#	268419
#	281381
#	309340
#
# Disc length: 4428 seconds
#
# Revision: 0
# Processed by: cddbd v1.4PL0 Copyright (c) Steve Scherf et al.
# Submitted via: CDex 1.40Beta9
#
DISCID=0e114a11
DTITLE=Acoustic Blues Duo - Do You Like Pigmeat
DYEAR=1996
DGENRE=Blues
TTITLE0=When The Levee Breaks ("Kansas Joe" McCoy)
TTITLE1=Someday Baby ("Mississippi" Fred McDowell)
TTITLE2=Weeping Willow (Fulton Allen)
TTITLE3=Zap's Dance (Goldhahn/Sauerwein)
TTITLE4=Police Dog Blues (Blind Blake)
TTITLE5=I'll Drown In My Own Tears (H. Glover)
TTITLE6=Pigmeat (Fulton Allen)
TTITLE7=Delphi Swing (H. Goldhahn)
TTITLE8=From Four Until Late (Robert Johnson)
TTITLE9=Rabbit Foot Blues (Blind Lemon Jefferson)
TTITLE10=Rolling From Side To Side ("Funny" Papa Smith)
TTITLE11=Ain't Misbehavin' (Fats Waller)
TTITLE12=You've Got Something There (Fulton Allen)
TTITLE13=Viola Lee Blues (Gus Cannon)
TTITLE14=Jivin' Woman Blues (Fulton Allen)
TTITLE15=West+East (H. Goldhahn)
TTITLE16=Future Blues (Willie Brown)
EXTD=YEAR: 1996 ID3G: 0
EXTT0=
EXTT1=
EXTT2=
EXTT3=
EXTT4=
EXTT5=
EXTT6=
EXTT7=
EXTT8=
EXTT9=
EXTT10=
EXTT11=
EXTT12=
EXTT13=
EXTT14=
EXTT15=
EXTT16=
PLAYORDER=
